<?xml version="1.0" standalone="no"?>
<!DOCTYPE svg PUBLIC "-//W3C//DTD SVG 20010904//EN"
 "http://www.w3.org/TR/2001/REC-SVG-20010904/DTD/svg10.dtd">
<svg version="1.0" xmlns="http://www.w3.org/2000/svg"
 width="512.000000pt" height="512.000000pt" viewBox="0 0 512.000000 512.000000"
 preserveAspectRatio="xMidYMid meet">

<g transform="translate(0.000000,512.000000) scale(0.100000,-0.100000)"
fill="#000000" stroke="none">
<path d="M1961 5109 c-141 -28 -275 -97 -378 -193 -68 -63 -83 -72 -135 -83
-207 -42 -387 -217 -442 -430 -31 -120 -17 -272 36 -395 l22 -51 -40 -31
c-100 -78 -174 -187 -209 -310 -20 -69 -22 -246 -5 -365 47 -319 185 -600 410
-834 l105 -110 -3 -58 c-7 -116 55 -232 152 -284 25 -13 39 -31 47 -55 48
-151 200 -324 346 -395 82 -40 99 -55 64 -55 -69 0 -531 -99 -580 -124 -58
-30 -66 -125 -14 -166 29 -22 69 -25 126 -9 22 6 41 8 44 5 4 -4 -147 -495
-263 -858 -51 -158 -58 -153 -119 80 -52 195 -66 224 -119 238 -35 8 -98 -24
-115 -60 -12 -26 -11 -40 9 -120 70 -273 109 -399 129 -420 l22 -21 1532 -3
c1140 -2 1539 1 1560 9 39 16 48 38 105 249 70 255 73 270 73 388 0 128 -19
209 -78 331 -37 77 -59 108 -126 176 -99 99 -186 152 -327 199 -106 35 -351
89 -468 102 -34 3 -65 10 -67 15 -3 4 11 13 31 19 57 19 177 105 238 170 60
65 123 167 151 241 12 33 29 55 60 77 125 88 167 250 100 383 l-24 48 61 108
c270 475 418 1002 434 1548 5 157 3 202 -10 260 -52 219 -221 395 -441 461
-131 39 -330 17 -454 -52 -24 -13 -47 -24 -51 -24 -5 0 -23 26 -40 58 -18 31
-69 94 -115 138 -65 65 -100 91 -176 128 -162 80 -152 79 -609 82 -223 1 -425
-2 -449 -7z m890 -220 c146 -56 244 -141 304 -263 33 -66 35 -75 28 -131 l-8
-60 -70 -17 c-280 -70 -651 -64 -928 17 -101 29 -127 31 -166 10 -38 -19 -51
-60 -51 -165 0 -48 -6 -108 -14 -134 -22 -72 -74 -145 -138 -192 -79 -58 -144
-79 -243 -79 -69 0 -89 5 -147 32 -89 42 -151 101 -191 182 -30 61 -32 73 -32
166 0 88 3 107 27 158 35 75 117 160 184 192 29 14 87 30 129 36 72 11 80 15
114 52 109 123 227 197 341 216 30 5 222 8 425 7 370 -2 370 -2 436 -27z m964
-304 c136 -38 255 -169 286 -315 8 -37 10 -105 5 -208 -22 -516 -165 -1020
-413 -1451 -49 -87 -59 -97 -80 -83 -10 6 -6 27 17 89 208 572 134 1236 -195
1758 l-57 90 42 37 c105 94 247 123 395 83z m-494 -417 c135 -257 202 -488
217 -747 32 -546 -153 -1035 -535 -1416 -88 -88 -151 -131 -238 -165 -50 -19
-79 -24 -170 -24 -175 0 -268 45 -426 203 -413 416 -600 1014 -498 1596 l10
60 72 22 c201 61 369 251 400 452 6 39 16 71 22 71 5 0 55 -9 110 -19 293 -57
608 -49 880 23 50 13 95 25 101 25 7 1 31 -36 55 -81z m-2061 -407 c33 -21 94
-50 136 -63 l76 -23 -6 -45 c-51 -364 -19 -714 93 -1018 l30 -80 -57 -19 c-31
-11 -65 -23 -75 -28 -15 -6 -32 6 -81 57 -237 243 -376 577 -376 903 0 107 20
174 69 244 20 28 115 111 127 111 2 0 30 -18 64 -39z m433 -1472 c30 -33 34
-66 12 -109 -39 -76 -151 -64 -176 19 -15 50 3 89 50 113 44 22 78 15 114 -23z
m1912 27 c41 -17 55 -42 55 -94 0 -51 -43 -92 -97 -92 -50 0 -93 45 -93 97 1
44 15 66 56 88 36 18 37 18 79 1z m-1515 -585 l0 -83 -32 6 c-51 10 -148 61
-200 106 -46 40 -128 151 -128 174 0 7 15 20 34 29 19 9 49 31 68 50 l33 34
112 -116 112 -116 1 -84z m1267 281 c22 -21 56 -46 76 -56 21 -9 37 -19 37
-23 0 -3 -21 -37 -47 -75 -52 -80 -145 -154 -231 -188 -90 -34 -92 -33 -92 61
l0 81 90 95 c50 51 97 105 106 118 9 14 17 25 19 25 1 0 20 -17 42 -38z m-909
-393 c123 -23 318 -3 435 46 15 6 17 -1 17 -82 0 -114 19 -173 76 -229 l42
-42 -28 -154 c-55 -302 -129 -605 -202 -823 l-43 -130 -146 -3 -145 -3 -49
147 c-61 188 -142 514 -190 766 l-37 198 35 32 c60 57 80 110 85 224 l5 102
41 -18 c22 -10 69 -24 104 -31z m-464 -381 c3 -13 21 -108 41 -212 42 -222
119 -535 174 -705 l39 -121 -404 0 c-264 0 -404 3 -404 10 0 12 310 1003 316
1009 6 6 175 39 206 40 21 1 29 -5 32 -21z m1410 -1 l58 -12 159 -505 c87
-278 159 -508 159 -512 0 -5 -183 -8 -406 -8 -349 0 -405 2 -401 14 69 180
214 773 243 995 l7 53 61 -6 c34 -4 87 -12 120 -19z m426 -114 c94 -45 194
-142 238 -229 80 -158 82 -280 9 -534 -37 -129 -47 -155 -63 -155 -16 0 -41
71 -170 484 l-152 483 32 -6 c17 -3 65 -23 106 -43z"/>
<path d="M3117 2929 c-50 -29 -58 -116 -14 -157 46 -43 129 -34 157 17 35 66
-14 151 -87 151 -21 0 -46 -5 -56 -11z"/>
<path d="M2463 2746 c-96 -24 -181 -74 -264 -155 -118 -115 -118 -147 -1 -261
122 -120 240 -170 397 -170 150 0 270 50 389 161 116 108 121 152 29 250 -57
61 -158 129 -238 159 -75 28 -233 36 -312 16z m268 -218 c30 -14 65 -34 79
-46 24 -19 24 -21 7 -39 -9 -11 -43 -33 -75 -49 -50 -25 -68 -29 -147 -29 -78
0 -97 4 -145 28 -30 15 -66 36 -79 47 -23 20 -23 21 -5 36 107 84 251 104 365
52z"/>
<path d="M989 1031 c-40 -40 -40 -89 0 -133 24 -27 36 -33 71 -33 35 0 47 6
71 33 40 44 40 93 0 133 -41 41 -101 41 -142 0z"/>
</g>
</svg>
